<mxfile host="app.diagrams.net" modified="2022-09-30T06:19:18.740Z" agent="5.0 (Macintosh; Intel Mac OS X 10_15_7) AppleWebKit/537.36 (KHTML, like Gecko) Chrome/104.0.0.0 Safari/537.36" etag="JeKLODqQlbn1wqzpxfN6" version="20.0.4" type="github">
  <diagram id="yo5G9XUVhXhmjOZbkS3K" name="Page-1">
    <mxGraphModel dx="1298" dy="738" grid="1" gridSize="10" guides="1" tooltips="1" connect="1" arrows="1" fold="1" page="1" pageScale="1" pageWidth="850" pageHeight="1100" math="0" shadow="0">
      <root>
        <mxCell id="0" />
        <mxCell id="1" parent="0" />
        <mxCell id="wol5fg5I5ejQYX7XQ51q-4" value="优惠券模块" style="rounded=1;whiteSpace=wrap;html=1;fillColor=#f8cecc;strokeColor=#b85450;shadow=1;" vertex="1" parent="1">
          <mxGeometry x="200" y="610" width="120" height="90" as="geometry" />
        </mxCell>
        <mxCell id="wol5fg5I5ejQYX7XQ51q-6" value="奖励模块" style="rounded=1;whiteSpace=wrap;html=1;fillColor=#f8cecc;strokeColor=#b85450;shadow=1;" vertex="1" parent="1">
          <mxGeometry x="395" y="610" width="130" height="90" as="geometry" />
        </mxCell>
        <mxCell id="wol5fg5I5ejQYX7XQ51q-7" value="植课模块" style="rounded=1;whiteSpace=wrap;html=1;fillColor=#f8cecc;strokeColor=#b85450;shadow=1;sketch=0;" vertex="1" parent="1">
          <mxGeometry x="600" y="610" width="130" height="90" as="geometry" />
        </mxCell>
        <mxCell id="wol5fg5I5ejQYX7XQ51q-8" value="任务调度：适配、异步化" style="rounded=1;whiteSpace=wrap;html=1;fillColor=#d5e8d4;strokeColor=#82b366;flipH=0;flipV=1;shadow=1;glass=1;sketch=0;" vertex="1" parent="1">
          <mxGeometry x="190" y="490" width="540" height="60" as="geometry" />
        </mxCell>
        <mxCell id="wol5fg5I5ejQYX7XQ51q-10" value="" style="endArrow=none;html=1;rounded=0;" edge="1" parent="1">
          <mxGeometry width="50" height="50" relative="1" as="geometry">
            <mxPoint x="10" y="440" as="sourcePoint" />
            <mxPoint x="800" y="440" as="targetPoint" />
          </mxGeometry>
        </mxCell>
        <mxCell id="wol5fg5I5ejQYX7XQ51q-13" value="&lt;font style=&quot;font-size: 16px;&quot;&gt;服&lt;br style=&quot;&quot;&gt;务&lt;br style=&quot;&quot;&gt;层&lt;/font&gt;" style="text;html=1;strokeColor=none;fillColor=none;align=center;verticalAlign=middle;whiteSpace=wrap;rounded=0;fontSize=14;fontStyle=1" vertex="1" parent="1">
          <mxGeometry x="50" y="480" width="60" height="220" as="geometry" />
        </mxCell>
        <mxCell id="wol5fg5I5ejQYX7XQ51q-16" value="" style="endArrow=classic;html=1;rounded=0;fontSize=16;entryX=0.5;entryY=0;entryDx=0;entryDy=0;exitX=0.5;exitY=1;exitDx=0;exitDy=0;dashed=1;" edge="1" parent="1" source="wol5fg5I5ejQYX7XQ51q-8" target="wol5fg5I5ejQYX7XQ51q-4">
          <mxGeometry width="50" height="50" relative="1" as="geometry">
            <mxPoint x="400" y="640" as="sourcePoint" />
            <mxPoint x="450" y="590" as="targetPoint" />
          </mxGeometry>
        </mxCell>
        <mxCell id="wol5fg5I5ejQYX7XQ51q-17" value="" style="endArrow=classic;html=1;rounded=0;fontSize=16;entryX=0.5;entryY=0;entryDx=0;entryDy=0;exitX=0.5;exitY=1;exitDx=0;exitDy=0;dashed=1;" edge="1" parent="1" source="wol5fg5I5ejQYX7XQ51q-8" target="wol5fg5I5ejQYX7XQ51q-6">
          <mxGeometry width="50" height="50" relative="1" as="geometry">
            <mxPoint x="437.05999999999995" y="563" as="sourcePoint" />
            <mxPoint x="270" y="620" as="targetPoint" />
          </mxGeometry>
        </mxCell>
        <mxCell id="wol5fg5I5ejQYX7XQ51q-18" value="" style="endArrow=classic;html=1;rounded=0;fontSize=16;entryX=0.5;entryY=0;entryDx=0;entryDy=0;dashed=1;" edge="1" parent="1" target="wol5fg5I5ejQYX7XQ51q-7">
          <mxGeometry width="50" height="50" relative="1" as="geometry">
            <mxPoint x="460" y="550" as="sourcePoint" />
            <mxPoint x="280" y="630" as="targetPoint" />
          </mxGeometry>
        </mxCell>
        <mxCell id="wol5fg5I5ejQYX7XQ51q-19" value="&lt;font style=&quot;font-size: 16px;&quot;&gt;接&lt;br style=&quot;&quot;&gt;入&lt;br style=&quot;&quot;&gt;层&lt;/font&gt;" style="text;html=1;strokeColor=none;fillColor=none;align=center;verticalAlign=middle;whiteSpace=wrap;rounded=0;fontSize=14;fontStyle=1" vertex="1" parent="1">
          <mxGeometry x="50" y="200" width="60" height="220" as="geometry" />
        </mxCell>
        <mxCell id="wol5fg5I5ejQYX7XQ51q-20" value="接入层" style="rounded=1;whiteSpace=wrap;html=1;flipH=0;flipV=1;shadow=1;glass=0;sketch=0;" vertex="1" parent="1">
          <mxGeometry x="190" y="270" width="540" height="60" as="geometry" />
        </mxCell>
        <mxCell id="wol5fg5I5ejQYX7XQ51q-21" value="" style="endArrow=classic;html=1;rounded=0;fontSize=16;entryX=0.5;entryY=0;entryDx=0;entryDy=0;exitX=0.5;exitY=1;exitDx=0;exitDy=0;" edge="1" parent="1" source="wol5fg5I5ejQYX7XQ51q-20" target="wol5fg5I5ejQYX7XQ51q-8">
          <mxGeometry width="50" height="50" relative="1" as="geometry">
            <mxPoint x="460" y="340" as="sourcePoint" />
            <mxPoint x="450" y="400" as="targetPoint" />
          </mxGeometry>
        </mxCell>
      </root>
    </mxGraphModel>
  </diagram>
</mxfile>
